<?xml version="1.0" encoding="UTF-8" standalone="no"?>
<svg
   version="1.1"
   id="Capa_1"
   x="0px"
   y="0px"
   viewBox="0 0 512 512"
   style="enable-background:new 0 0 512 512;"
   xml:space="preserve">
<path
   style="fill:#E7E7E7;"
   d="M256,0L30.912,64.225v112.844c0,144.956,86.134,275.508,219.086,332.529L256,512l6.002-2.402  c132.952-57.021,219.086-187.573,219.086-332.529V64.225L256,0z"
   id="path2" />
<path
   style="fill:#D3D3D8;"
   d="M481.088,64.225v112.844c0,144.956-86.134,275.508-219.086,332.529L256,512V0L481.088,64.225z"
   id="path4" />
<path
   style="fill:#00ABE9;"
   d="M256,62.425L90.936,109.544v67.526c0,111.042,60.625,212.482,157.862,265.303l7.203,3.902  l7.203-3.902c97.238-52.821,157.862-154.26,157.862-265.303v-67.526L256,62.425z"
   id="path6" />
<path
   style="fill:#0095FF;"
   d="M421.064,109.544v67.526c0,111.042-60.625,212.482-157.862,265.303L256,446.274V62.425  L421.064,109.544z"
   id="path8" />
<g
   id="g10">
</g>
<g
   id="g12">
</g>
<g
   id="g14">
</g>
<g
   id="g16">
</g>
<g
   id="g18">
</g>
<g
   id="g20">
</g>
<g
   id="g22">
</g>
<g
   id="g24">
</g>
<g
   id="g26">
</g>
<g
   id="g28">
</g>
<g
   id="g30">
</g>
<g
   id="g32">
</g>
<g
   id="g34">
</g>
<g
   id="g36">
</g>
<g
   id="g38">
</g>
<path
   d="m 256.00047,132.35347 c -21.03296,0 -41.30174,6.13128 -58.83365,17.77183 h -30.02551 v 30.02551 c -11.64055,17.53191 -17.77183,37.80069 -17.77183,58.83365 0,21.03296 6.13128,41.30174 17.77183,58.83365 v 30.02551 h 30.02551 c 17.53191,11.64055 37.80069,17.77183 58.83365,17.77183 21.03296,0 41.30174,-6.13128 58.83365,-17.77183 h 30.02551 v -30.02551 c 11.64055,-17.53191 17.77183,-37.80069 17.77183,-58.83365 0,-21.03296 -6.13128,-41.30174 -17.77183,-58.83365 V 150.1253 h -30.02551 c -17.53191,-11.64055 -37.80069,-17.77183 -58.83365,-17.77183 z m 0,17.77183 c 18.31387,0 35.94353,5.59813 50.98738,16.1546 l 2.29257,1.61724 h 17.80737 v 17.80737 l 1.61724,2.29257 a 88.343773,88.343773 0 0 1 16.1546,50.98738 c 0,18.31387 -5.59813,35.94353 -16.1546,50.98738 l -1.61724,2.29257 v 17.80737 h -17.80737 l -2.29257,1.61724 a 88.308229,88.308229 0 0 1 -50.98738,16.1546 c -18.30499,0 -35.93464,-5.59813 -50.98738,-16.1546 l -2.29257,-1.61724 h -17.80737 v -17.80737 l -1.61724,-2.29257 a 88.308229,88.308229 0 0 1 -16.1546,-50.98738 c 0,-18.30499 5.59813,-35.93464 16.1546,-50.98738 l 1.61724,-2.29257 v -17.80737 h 17.80737 l 2.29257,-1.61724 a 88.343773,88.343773 0 0 1 50.98738,-16.1546 z m -62.20141,44.42958 7.0643,7.0643 a 8.7615128,8.7615128 0 0 1 2.38143,4.33633 l 16.15459,72.70456 a 8.8859156,8.8859156 0 0 1 -2.39919,8.21059 l -5.4293,5.42929 h 35.54366 l -4.11417,-8.24613 13.00009,-36.18344 13.00009,36.18344 -4.11417,8.24613 h 35.54366 l -5.4293,-5.42929 a 8.8859156,8.8859156 0 0 1 -2.39919,-8.21059 l 16.16348,-72.70456 a 8.7970565,8.7970565 0 0 1 2.37254,-4.33633 l 7.0643,-7.0643 h -35.54366 l 2.98566,5.95357 a 8.8592579,8.8592579 0 0 1 0.65756,6.13128 l -10.01442,40.04882 -20.28655,-52.13367 -20.28655,52.13367 -10.01442,-40.05771 a 8.8592579,8.8592579 0 0 1 0.67533,-6.13128 l 2.96789,-5.94468 z"
   id="path848"
   style="fill:#e9e9e9;fill-opacity:0.52728456;stroke-width:8.88592" /></svg>
